<?xml version="1.0" standalone="no"?>
<!DOCTYPE svg PUBLIC "-//W3C//DTD SVG 20010904//EN"
 "http://www.w3.org/TR/2001/REC-SVG-20010904/DTD/svg10.dtd">
<svg version="1.0" xmlns="http://www.w3.org/2000/svg"
 width="828.000000pt" height="828.000000pt" viewBox="0 0 828.000000 828.000000"
 preserveAspectRatio="xMidYMid meet">
<metadata>
Created by potrace 1.11, written by Peter Selinger 2001-2013
</metadata>
<g transform="translate(0.000000,828.000000) scale(0.100000,-0.100000)"
fill="#000000" stroke="none">
<path d="M211 8237 c-9 -11 -8 -17 4 -27 9 -7 14 -19 11 -26 -3 -7 2 -15 10
-18 9 -3 13 -10 10 -15 -3 -5 1 -14 9 -21 7 -6 11 -18 8 -26 -3 -8 0 -14 5
-14 11 0 28 -38 24 -52 -1 -5 2 -8 7 -8 7 0 22 -36 20 -49 0 -2 3 -7 8 -10 15
-11 34 -52 28 -61 -4 -6 -1 -10 4 -10 6 0 11 -7 11 -15 0 -8 5 -15 11 -15 5 0
7 -4 4 -10 -3 -5 -2 -10 4 -10 6 0 8 -6 5 -14 -3 -7 2 -16 10 -19 10 -4 13
-13 9 -23 -4 -12 -3 -15 5 -10 11 6 15 -5 11 -30 0 -4 4 -10 11 -14 6 -4 12
-16 13 -28 0 -11 5 -18 9 -16 4 3 8 0 8 -6 0 -7 10 -26 22 -43 12 -17 17 -27
10 -23 -17 10 -15 -3 3 -21 8 -8 13 -19 10 -24 -4 -5 -1 -9 4 -9 6 0 11 -9 11
-21 0 -11 4 -17 10 -14 5 3 10 -3 10 -14 0 -12 5 -21 12 -21 6 0 8 -3 5 -6 -3
-4 -1 -16 5 -28 7 -11 11 -24 10 -28 -1 -5 3 -8 9 -8 5 0 8 -4 5 -9 -4 -5 -2
-11 4 -13 6 -2 12 -14 15 -27 2 -14 10 -28 17 -33 7 -4 9 -8 4 -8 -5 0 -1 -9
8 -19 10 -11 15 -24 12 -30 -4 -5 1 -14 10 -19 9 -5 15 -12 14 -16 -3 -13 44
-106 53 -106 5 0 3 -8 -4 -17 -10 -12 -10 -15 -1 -9 12 7 34 -32 25 -46 -2 -5
0 -8 5 -8 5 0 20 -25 33 -55 13 -30 27 -55 31 -55 4 0 5 -7 2 -15 -4 -8 -2
-15 4 -15 9 0 25 -37 23 -52 -1 -5 4 -8 10 -8 5 0 8 -4 4 -9 -3 -5 1 -16 9
-24 8 -8 12 -17 9 -21 -4 -3 -1 -6 6 -6 7 0 9 -4 6 -10 -3 -5 -1 -10 5 -10 6
0 8 -4 5 -10 -3 -5 -1 -10 4 -10 6 0 11 -3 10 -7 -2 -17 14 -53 24 -53 6 0 8
-3 4 -6 -3 -3 8 -31 23 -61 16 -31 26 -61 23 -66 -3 -6 -1 -7 5 -3 12 7 16 -5
13 -31 -1 -7 5 -13 13 -13 10 0 13 -6 10 -15 -4 -8 -1 -15 7 -15 7 0 9 -3 6
-6 -3 -4 0 -16 8 -28 8 -11 15 -29 15 -39 0 -10 5 -15 11 -12 6 4 10 1 8 -6
-3 -28 1 -40 13 -33 8 5 9 2 5 -9 -4 -10 0 -20 11 -26 9 -6 13 -11 8 -11 -4 0
-1 -11 8 -25 9 -14 13 -25 10 -25 -4 0 0 -8 9 -17 8 -10 15 -20 15 -23 0 -3
14 -35 31 -72 30 -63 57 -88 80 -74 5 4 12 0 14 -6 3 -7 6 -8 6 -3 1 11 2781
12 2799 1 6 -3 12 0 15 6 3 10 7 10 20 -1 10 -7 17 -9 17 -4 0 4 52 7 116 6
89 -2 114 0 109 10 -4 6 1 3 9 -7 9 -11 16 -16 16 -10 0 10 1601 11 1618 0 6
-3 12 0 15 6 3 10 7 10 20 -1 10 -7 17 -9 17 -4 0 4 52 7 116 6 89 -2 114 0
109 10 -4 6 1 3 9 -7 9 -11 16 -16 16 -10 0 5 140 9 358 8 344 -1 384 0 380
14 -1 4 4 18 11 30 7 13 10 26 7 29 -3 4 3 13 14 20 11 8 18 19 15 24 -4 5 -1
9 5 9 6 0 8 5 4 12 -4 6 0 16 8 22 8 6 16 14 16 19 6 33 16 57 23 57 5 0 9 9
9 20 0 11 5 20 10 20 6 0 10 6 10 14 0 8 16 44 35 80 19 36 32 66 28 66 -3 0
1 8 10 18 10 10 14 22 10 25 -3 4 -1 7 6 7 7 0 9 5 6 10 -3 6 0 13 8 16 7 2
14 10 14 17 0 20 43 107 53 107 5 0 7 7 4 15 -3 8 1 22 10 30 15 15 21 36 17
58 -1 5 3 6 8 3 5 -4 15 11 21 31 7 21 18 45 26 53 7 8 13 18 14 22 8 35 14
48 22 48 5 0 6 5 3 10 -3 6 -1 10 5 10 6 0 9 4 5 9 -3 5 1 16 9 24 8 8 12 17
9 21 -4 3 0 6 7 6 7 0 11 3 7 6 -3 4 6 30 20 58 15 28 26 54 25 59 -1 4 3 7
10 7 6 0 9 3 5 6 -3 3 8 31 24 62 16 31 29 62 29 70 0 7 4 10 10 7 6 -3 10 2
10 12 0 11 6 28 14 38 8 11 11 25 9 32 -3 8 0 13 8 11 10 -2 13 5 11 21 -2 15
0 21 7 17 7 -4 11 1 11 13 0 12 5 21 10 21 6 0 10 6 10 13 0 18 23 67 32 67 4
0 5 7 2 15 -4 8 -2 15 4 15 9 0 25 37 23 53 -1 4 3 7 9 7 6 0 9 3 8 8 -1 4 5
21 15 38 9 17 13 34 10 38 -4 3 -1 6 5 6 10 0 28 38 24 53 -1 4 3 7 9 7 5 0 7
5 4 10 -3 6 -2 10 3 10 10 0 36 58 33 73 0 4 3 7 9 7 5 0 10 6 10 13 0 7 8 24
17 37 10 14 18 29 18 35 0 15 48 109 60 117 5 4 6 8 2 8 -4 0 -2 10 5 23 7 12
11 28 9 36 -1 7 2 10 8 6 6 -3 11 1 11 9 0 9 0 19 0 23 0 11 -843 11 -857 0
-8 -6 -18 -6 -25 0 -7 5 -40 8 -73 7 -91 -3 -99 -3 -92 -10 3 -4 1 -16 -5 -28
-7 -11 -11 -24 -10 -28 1 -5 -2 -8 -8 -8 -5 0 -10 -9 -10 -19 0 -10 -7 -22
-16 -25 -8 -3 -13 -10 -9 -16 3 -5 -2 -22 -12 -37 -10 -15 -30 -53 -44 -85
-14 -32 -28 -56 -30 -53 -3 2 -6 -5 -6 -17 -1 -12 -6 -24 -10 -27 -4 -3 -9
-13 -11 -21 -2 -8 -8 -16 -13 -18 -5 -2 -9 -8 -9 -14 0 -16 -33 -82 -44 -90
-6 -4 -7 -8 -3 -8 4 0 3 -9 -3 -20 -7 -12 -16 -18 -23 -13 -9 5 -9 3 0 -8 9
-11 8 -18 -1 -31 -7 -10 -17 -14 -21 -10 -5 4 -5 2 -1 -5 6 -10 -5 -36 -56
-137 -6 -10 -18 -34 -29 -52 -10 -19 -15 -34 -11 -34 4 0 1 -4 -6 -9 -7 -4
-14 -14 -15 -22 -2 -8 -7 -21 -12 -29 -5 -8 -10 -17 -11 -20 -2 -13 -30 -66
-37 -71 -5 -3 -9 -9 -8 -12 0 -11 -30 -81 -42 -96 -6 -7 -12 -20 -14 -29 -1
-9 -7 -18 -13 -20 -5 -2 -8 -8 -4 -13 3 -5 0 -9 -6 -9 -6 0 -9 -4 -5 -9 3 -5
-1 -16 -9 -24 -8 -8 -12 -17 -9 -21 4 -3 2 -6 -3 -7 -50 -4 -64 -3 -64 4 0 5
-6 4 -14 -2 -11 -9 -16 -9 -21 0 -6 8 -10 7 -16 -2 -7 -12 -9 -12 -9 0 0 11
-3 11 -15 1 -12 -10 -15 -10 -15 1 0 12 -2 12 -9 0 -6 -9 -11 -10 -15 -2 -5 7
-15 7 -31 1 -16 -6 -25 -6 -25 1 0 6 -7 6 -20 -1 -15 -8 -20 -8 -20 2 0 9 -3
9 -10 -2 -7 -11 -10 -11 -10 -2 0 8 -5 10 -12 6 -19 -12 -48 -12 -48 0 0 6 -5
4 -10 -4 -5 -8 -10 -10 -10 -4 0 11 -51 11 -69 0 -5 -4 -13 -1 -17 5 -4 8 -9
7 -16 -2 -7 -11 -11 -11 -14 -2 -4 8 -13 9 -30 3 -16 -7 -24 -6 -24 1 0 8 -4
8 -14 0 -11 -9 -16 -9 -21 0 -6 8 -10 7 -16 -2 -7 -12 -9 -12 -9 0 0 11 -3 11
-15 1 -12 -10 -15 -10 -15 1 0 12 -2 12 -9 0 -6 -9 -11 -10 -15 -2 -5 7 -15 7
-31 1 -16 -6 -25 -6 -25 1 0 6 -7 6 -20 -1 -15 -8 -20 -8 -20 2 0 9 -3 9 -10
-2 -7 -11 -10 -11 -10 -2 0 8 -5 10 -12 6 -19 -12 -48 -12 -48 0 0 6 -5 4 -10
-4 -5 -8 -10 -10 -10 -4 0 11 -51 11 -69 0 -5 -4 -13 -1 -17 5 -4 8 -9 7 -16
-2 -7 -11 -11 -11 -14 -2 -4 8 -13 9 -30 3 -16 -7 -24 -6 -24 1 0 8 -4 8 -14
0 -11 -9 -16 -9 -21 0 -6 8 -10 7 -16 -2 -7 -12 -9 -12 -9 0 0 11 -3 11 -15 1
-12 -10 -15 -10 -15 1 0 12 -2 12 -9 0 -6 -9 -11 -10 -15 -2 -5 7 -15 7 -31 1
-16 -6 -25 -6 -25 1 0 6 -7 6 -20 -1 -15 -8 -20 -8 -20 2 0 9 -3 9 -10 -2 -7
-11 -10 -11 -10 -2 0 8 -5 10 -12 6 -19 -12 -48 -12 -48 0 0 6 -5 4 -10 -4 -5
-8 -10 -10 -10 -4 0 11 -51 11 -69 0 -5 -4 -13 -1 -17 5 -4 8 -9 7 -16 -2 -7
-11 -11 -11 -14 -2 -4 8 -13 9 -30 3 -16 -7 -24 -6 -24 1 0 8 -4 8 -14 0 -11
-9 -16 -9 -21 0 -6 8 -10 7 -16 -2 -7 -12 -9 -12 -9 0 0 11 -3 11 -15 1 -12
-10 -15 -10 -15 1 0 12 -2 12 -9 0 -6 -9 -11 -10 -15 -2 -5 7 -15 7 -31 1 -16
-6 -25 -6 -25 1 0 6 -7 6 -20 -1 -15 -8 -20 -8 -20 2 0 9 -3 9 -10 -2 -7 -11
-10 -11 -10 -2 0 8 -5 10 -12 6 -19 -12 -48 -12 -48 0 0 6 -5 4 -10 -4 -5 -8
-10 -10 -10 -4 0 11 -51 11 -69 0 -5 -4 -13 -1 -17 5 -4 8 -9 7 -16 -2 -7 -11
-11 -11 -14 -2 -4 8 -13 9 -30 3 -16 -7 -24 -6 -24 1 0 8 -4 8 -14 0 -11 -9
-16 -9 -21 0 -6 8 -10 7 -16 -2 -7 -12 -9 -12 -9 0 0 11 -3 11 -15 1 -12 -10
-15 -10 -15 1 0 12 -2 12 -9 0 -6 -9 -11 -10 -15 -2 -5 7 -15 7 -31 1 -16 -6
-25 -6 -25 1 0 6 -7 6 -20 -1 -15 -8 -20 -8 -20 2 0 9 -3 9 -10 -2 -7 -11 -10
-11 -10 -2 0 8 -5 10 -12 6 -19 -12 -48 -12 -48 0 0 6 -5 4 -10 -4 -5 -8 -10
-10 -10 -4 0 11 -51 11 -69 0 -5 -4 -13 -1 -17 5 -4 8 -9 7 -16 -2 -7 -11 -11
-11 -14 -2 -4 8 -13 9 -30 3 -16 -7 -24 -6 -24 1 0 8 -4 8 -14 0 -11 -9 -16
-9 -21 0 -6 8 -10 7 -16 -2 -7 -12 -9 -12 -9 0 0 11 -3 11 -15 1 -12 -10 -15
-10 -15 1 0 12 -2 12 -9 0 -6 -9 -11 -10 -15 -2 -5 8 -13 8 -27 1 -14 -8 -19
-7 -19 1 0 8 -5 7 -17 -2 -15 -12 -16 -12 -8 1 8 13 7 13 -8 1 -14 -11 -17
-11 -17 0 0 11 -2 11 -10 -1 -9 -13 -10 -13 -10 0 0 9 -3 11 -8 5 -9 -13 -42
-16 -42 -4 0 6 -9 5 -20 -1 -15 -8 -20 -8 -20 1 0 8 -5 7 -17 -2 -15 -12 -16
-12 -8 1 8 13 7 13 -8 1 -14 -11 -17 -11 -17 0 0 11 -2 11 -10 -1 -9 -13 -10
-13 -10 0 0 9 -3 11 -8 5 -9 -13 -42 -16 -42 -4 0 6 -9 5 -20 -1 -15 -8 -20
-8 -20 1 0 8 -5 7 -17 -2 -15 -12 -16 -12 -8 1 8 13 7 13 -8 1 -14 -11 -17
-11 -17 0 0 11 -2 11 -10 -1 -9 -13 -10 -13 -10 0 0 9 -3 11 -8 5 -9 -13 -42
-16 -42 -4 0 6 -9 5 -20 -1 -15 -8 -20 -8 -20 1 0 8 -5 7 -17 -2 -15 -12 -16
-12 -8 1 8 13 7 13 -8 1 -14 -11 -17 -11 -17 0 0 11 -2 11 -10 -1 -9 -13 -10
-13 -10 0 0 9 -3 11 -8 5 -9 -13 -42 -16 -42 -4 0 6 -9 5 -20 -1 -15 -8 -20
-8 -20 1 0 8 -5 7 -17 -2 -15 -12 -16 -12 -8 1 8 13 7 13 -8 1 -14 -11 -17
-11 -17 0 0 11 -2 11 -10 -1 -9 -13 -10 -13 -10 0 0 9 -3 11 -8 5 -9 -13 -42
-16 -42 -4 0 6 -9 5 -20 -1 -15 -8 -20 -8 -20 1 0 8 -5 7 -17 -2 -15 -12 -16
-12 -8 1 8 13 7 13 -8 1 -14 -11 -17 -11 -17 0 0 11 -2 11 -10 -1 -9 -13 -10
-13 -10 0 0 9 -3 11 -8 5 -9 -13 -42 -16 -42 -4 0 6 -9 5 -20 -1 -15 -8 -20
-8 -20 1 0 8 -5 7 -17 -2 -15 -12 -16 -12 -8 1 8 13 7 13 -8 1 -14 -11 -17
-11 -17 0 0 11 -2 11 -10 -1 -9 -13 -10 -13 -10 0 0 9 -3 11 -8 5 -9 -13 -42
-16 -42 -4 0 6 -9 5 -20 -1 -15 -8 -20 -8 -20 1 0 8 -5 7 -17 -2 -15 -12 -16
-12 -8 1 8 13 7 13 -8 1 -14 -11 -17 -11 -17 0 0 11 -2 11 -10 -1 -9 -13 -10
-13 -10 0 0 9 -3 11 -8 5 -9 -13 -42 -16 -42 -4 0 6 -9 5 -20 -1 -15 -8 -20
-8 -20 1 0 9 -3 9 -14 0 -11 -9 -16 -9 -21 0 -6 8 -10 7 -16 -2 -7 -12 -9 -12
-9 0 0 11 -3 11 -15 1 -12 -10 -15 -10 -15 1 0 12 -2 12 -9 0 -6 -9 -11 -10
-15 -2 -5 7 -15 7 -31 1 -16 -6 -25 -6 -25 1 0 6 -7 6 -20 -1 -15 -8 -20 -8
-20 2 0 9 -3 9 -10 -2 -7 -11 -10 -11 -10 -2 0 8 -5 10 -12 6 -19 -12 -48 -12
-48 0 0 6 -5 4 -10 -4 -5 -8 -10 -10 -10 -4 0 11 -51 11 -69 0 -5 -4 -13 -1
-17 5 -4 8 -9 7 -16 -2 -7 -11 -11 -11 -14 -2 -4 8 -13 9 -30 3 -16 -7 -24 -6
-24 1 0 8 -4 8 -14 0 -11 -9 -16 -9 -21 0 -6 8 -10 7 -16 -2 -7 -12 -9 -12 -9
0 0 11 -3 11 -15 1 -12 -10 -15 -10 -15 1 0 12 -2 12 -9 0 -6 -9 -11 -10 -15
-2 -4 7 -15 7 -31 1 -16 -6 -27 -6 -31 1 -4 6 -11 6 -20 -2 -10 -8 -14 -8 -14
0 0 6 -8 11 -17 11 -9 0 -14 3 -10 6 3 4 -1 21 -10 38 -10 17 -18 36 -18 41
-1 6 -5 9 -10 8 -6 -1 -11 10 -12 25 0 14 -9 32 -19 39 -10 7 -14 13 -10 13 4
0 -1 16 -13 36 -12 19 -21 42 -21 50 0 8 -5 14 -10 14 -6 0 -9 4 -8 8 3 8 -42
103 -53 112 -3 3 -9 17 -12 32 -4 15 -14 34 -23 42 -8 9 -12 16 -8 16 3 0 1 6
-5 14 -7 8 -14 24 -16 37 -3 12 -9 25 -14 28 -9 6 -26 43 -31 66 -1 6 -7 17
-13 25 -24 30 -38 61 -32 70 4 6 1 10 -4 10 -6 0 -11 7 -11 15 0 8 -5 15 -11
15 -5 0 -7 5 -4 10 3 6 1 10 -4 10 -6 0 -11 3 -10 8 3 17 -14 51 -22 46 -5 -3
-6 2 -3 10 3 9 1 16 -5 16 -6 0 -10 3 -9 8 3 9 -34 85 -45 93 -5 3 -9 10 -9
15 0 10 -14 42 -27 64 -5 8 -15 29 -22 45 -7 17 -20 39 -29 49 -10 14 -11 17
-1 11 9 -5 7 1 -4 19 -10 14 -20 27 -24 27 -31 6 -970 3 -982 -2 -9 -5 -20 -4
-26 2 -6 6 -14 5 -22 -4z"/>
<path d="M1665 5599 c4 -11 -9 -14 -65 -12 -39 0 -77 4 -85 7 -8 3 -15 0 -15
-7 0 -9 -2 -9 -9 1 -6 10 -10 10 -21 -3 -11 -13 -11 -16 0 -13 13 3 16 -2 19
-38 0 -9 6 -12 13 -8 8 5 9 2 5 -9 -3 -9 1 -23 9 -31 8 -9 14 -17 13 -18 -1
-2 8 -25 21 -53 13 -27 22 -52 21 -54 -2 -2 2 -7 9 -11 6 -4 12 -16 13 -28 0
-12 7 -24 15 -27 7 -3 11 -9 7 -14 -3 -5 -1 -12 5 -16 5 -3 10 -15 10 -26 0
-11 5 -17 10 -14 6 3 10 0 10 -7 0 -7 14 -40 30 -73 17 -33 30 -64 30 -70 0
-5 9 -21 20 -35 11 -14 20 -33 20 -42 0 -10 5 -18 11 -18 6 0 9 -6 6 -14 -3
-8 1 -17 9 -20 8 -3 14 -9 13 -13 -4 -21 2 -33 13 -27 6 4 9 3 5 -2 -3 -5 0
-23 7 -39 7 -17 14 -34 16 -40 2 -5 10 -16 17 -23 7 -7 13 -22 13 -33 0 -10 5
-19 11 -19 5 0 7 -4 4 -10 -3 -5 -1 -10 4 -10 6 0 11 -9 11 -20 0 -11 5 -20
11 -20 5 0 7 -4 4 -10 -3 -5 -1 -10 5 -10 6 0 9 -4 5 -9 -3 -5 2 -16 10 -25 9
-8 16 -19 16 -23 0 -24 12 -52 20 -47 5 3 9 -4 9 -15 0 -11 5 -23 10 -26 6 -3
10 -15 10 -26 0 -10 4 -19 8 -19 5 0 15 -18 22 -40 7 -22 17 -40 22 -40 4 0 7
-3 6 -7 -1 -5 10 -31 24 -60 14 -28 24 -54 21 -57 -4 -3 -1 -6 6 -6 7 0 9 -4
6 -10 -3 -5 -2 -10 3 -10 6 0 13 -11 16 -25 4 -14 11 -25 17 -25 6 0 7 -5 4
-10 -4 -6 -1 -17 5 -25 7 -8 9 -15 4 -15 -5 0 -2 -5 6 -10 8 -5 15 -13 15 -17
1 -4 14 -35 30 -68 16 -33 28 -62 26 -64 -1 -2 1 -7 6 -10 13 -10 53 -95 53
-114 0 -10 5 -15 10 -12 6 3 10 -3 10 -14 0 -12 4 -21 9 -21 9 0 26 -48 23
-62 -1 -5 3 -8 9 -8 5 0 8 -4 5 -9 -4 -5 -3 -11 1 -13 5 -1 16 -18 25 -36 11
-21 13 -31 5 -27 -6 4 -4 0 5 -8 10 -8 15 -17 11 -20 -3 -4 1 -9 10 -13 9 -3
14 -11 11 -19 -3 -7 2 -19 10 -28 8 -8 12 -17 9 -21 -4 -3 -1 -6 6 -6 7 0 11
-7 8 -15 -4 -8 -2 -17 3 -20 6 -4 20 -27 31 -53 12 -26 24 -49 28 -52 3 -3 7
-9 8 -15 5 -26 29 -81 40 -93 7 -7 16 -24 19 -38 3 -13 10 -24 15 -24 5 0 9
-7 9 -15 0 -9 10 -35 22 -58 12 -23 21 -45 20 -49 -1 -5 2 -8 8 -8 6 0 9 -3 9
-7 -3 -21 2 -33 13 -27 6 4 8 3 5 -3 -4 -5 11 -44 32 -86 22 -41 37 -78 33
-81 -3 -3 0 -6 7 -6 7 0 10 -4 7 -9 -3 -5 0 -14 8 -20 8 -7 17 -23 20 -36 4
-14 11 -25 17 -25 6 0 7 -4 4 -10 -3 -5 2 -21 11 -35 9 -14 12 -25 8 -25 -5 0
-4 -4 3 -8 6 -4 13 -14 15 -22 2 -8 9 -21 16 -28 7 -8 10 -18 7 -23 -4 -5 -2
-9 3 -9 5 0 15 -18 22 -40 7 -22 17 -40 22 -40 4 0 8 -9 8 -20 0 -11 5 -20 10
-20 6 0 10 -9 10 -20 0 -11 5 -20 11 -20 6 0 8 -7 5 -16 -3 -8 -2 -12 4 -9 9
6 14 -10 13 -42 -1 -7 3 -13 8 -13 12 0 40 -56 32 -64 -4 -3 -1 -6 6 -6 7 0
10 -4 7 -9 -4 -5 -2 -11 3 -13 5 -1 11 -12 13 -23 1 -11 10 -27 18 -35 8 -8
17 -26 18 -39 2 -13 10 -31 18 -38 8 -8 12 -18 9 -23 -3 -5 -1 -10 4 -12 5 -1
11 -10 13 -18 2 -8 9 -21 16 -28 7 -8 10 -18 7 -23 -4 -5 -1 -9 4 -9 6 0 11
-9 11 -20 0 -11 5 -20 10 -20 6 0 10 -9 10 -20 0 -11 5 -20 10 -20 6 0 10 -6
10 -13 0 -18 24 -67 33 -67 4 0 7 -7 7 -15 0 -17 20 -56 33 -66 5 -3 8 -9 8
-13 -3 -23 0 -36 9 -31 6 3 10 -2 10 -12 0 -11 6 -25 13 -32 10 -11 9 -12 -3
-6 -8 5 -5 -3 8 -17 12 -13 19 -28 15 -31 -3 -4 -1 -7 5 -7 6 0 9 -7 6 -15 -4
-8 -1 -15 4 -15 9 0 26 -36 24 -50 0 -3 6 -8 13 -13 8 -4 12 -14 9 -22 -4 -8
-1 -15 6 -15 6 0 8 -5 5 -10 -3 -6 0 -13 9 -16 8 -3 13 -11 10 -18 -3 -7 2
-19 10 -26 9 -7 13 -16 10 -21 -3 -5 0 -9 6 -9 6 0 8 -4 5 -10 -3 -5 -1 -10 5
-10 6 0 9 -4 5 -9 -3 -5 2 -16 11 -25 8 -9 12 -20 9 -26 -3 -5 -1 -10 4 -10 6
0 11 -5 11 -11 0 -6 9 -24 21 -40 11 -16 18 -36 15 -44 -3 -8 -1 -15 4 -15 10
0 44 -73 40 -86 -1 -4 2 -10 7 -13 4 -3 15 -15 23 -25 13 -18 13 -19 0 -11
-13 8 -13 6 -1 -8 23 -28 70 -125 64 -131 -4 -3 -1 -6 5 -6 7 0 12 -9 12 -20
0 -11 5 -20 12 -20 6 0 8 -3 5 -7 -4 -3 0 -15 10 -25 9 -10 12 -18 8 -18 -4 0
0 -9 9 -19 10 -11 15 -25 11 -30 -3 -6 -1 -11 4 -11 6 0 11 -7 11 -15 0 -8 5
-15 11 -15 5 0 8 -4 4 -9 -3 -5 -1 -12 5 -16 6 -4 8 -11 5 -16 -4 -5 -1 -9 4
-9 6 0 11 -9 11 -20 0 -11 5 -20 10 -20 6 0 10 -9 10 -20 0 -11 5 -20 10 -20
6 0 10 -9 10 -20 0 -11 5 -20 10 -20 6 0 10 -9 10 -20 0 -11 5 -20 11 -20 5 0
8 -4 4 -9 -3 -5 -1 -12 5 -16 6 -4 8 -11 5 -16 -4 -5 -2 -9 3 -9 4 0 14 -16
22 -35 8 -19 18 -35 24 -35 5 0 6 -3 3 -6 -3 -4 -1 -16 5 -28 7 -11 11 -24 10
-28 -1 -5 3 -8 9 -8 6 0 9 -7 5 -15 -3 -8 -1 -15 4 -15 6 0 10 -6 10 -13 0 -7
6 -19 12 -26 7 -6 13 -15 13 -19 2 -25 18 -51 28 -46 7 4 9 4 5 -1 -8 -8 20
-86 34 -96 5 -3 10 -15 11 -27 0 -11 4 -19 7 -17 3 2 12 -11 19 -28 26 -67 43
-79 49 -37 2 11 8 20 14 20 5 0 8 6 5 14 -3 8 1 17 9 20 9 3 12 10 9 16 -3 5
-1 10 6 10 7 0 10 3 6 6 -3 3 10 35 28 70 19 35 32 64 29 64 -2 0 0 9 6 20 6
11 15 18 20 15 6 -3 7 0 4 8 -3 8 2 22 11 31 11 10 12 16 4 16 -9 0 -8 5 3 18
16 18 48 84 45 92 -1 3 8 20 21 37 13 18 20 37 17 43 -3 5 -2 10 4 10 6 0 13
11 17 25 3 14 10 25 16 25 5 0 7 4 3 9 -3 5 2 17 11 25 8 9 12 16 8 16 -3 0
-1 6 5 13 6 8 8 17 4 20 -3 4 -2 7 4 7 6 0 14 10 18 23 4 12 8 24 9 27 1 3 7
15 14 28 7 12 10 28 6 34 -4 6 -3 8 3 5 10 -6 38 47 34 66 0 4 4 7 9 7 6 0 10
11 10 25 0 14 5 24 12 22 7 -1 13 3 13 8 4 30 18 65 27 65 5 0 7 4 3 9 -3 5
-1 12 5 16 6 4 8 11 5 16 -4 5 -1 9 4 9 6 0 11 7 11 16 0 9 9 28 19 43 11 15
23 39 26 54 4 14 13 31 21 38 8 6 11 15 8 20 -3 5 0 9 5 9 6 0 11 11 11 25 0
14 4 25 9 25 8 0 22 32 25 55 1 6 7 15 15 21 8 6 11 16 8 21 -4 6 0 14 9 17 9
3 14 13 11 20 -3 8 -1 16 4 18 6 2 11 12 13 21 1 10 9 23 17 28 8 5 10 9 6 9
-4 0 -2 10 5 23 7 12 13 24 13 27 0 3 6 15 13 26 6 12 8 24 5 28 -3 3 1 6 10
6 10 0 14 5 11 15 -4 8 -1 15 5 15 6 0 11 7 11 16 0 8 11 35 24 59 14 24 22
46 19 49 -4 3 -1 6 6 6 7 0 9 5 6 10 -3 6 1 13 9 16 9 3 14 10 11 14 -3 5 4
24 15 42 11 18 20 41 20 51 0 9 5 17 10 17 6 0 10 7 10 15 0 8 4 15 10 15 5 0
9 3 9 8 -1 4 0 10 1 15 1 4 3 10 4 15 1 4 10 22 19 40 10 18 15 37 12 43 -4 5
-1 8 6 7 7 -2 14 2 14 7 1 6 9 27 18 48 9 20 16 40 16 44 -1 3 3 9 8 12 10 7
37 62 38 77 0 6 8 19 18 28 19 19 23 31 6 21 -6 -4 -5 2 3 14 7 12 16 21 21
21 4 0 6 4 2 9 -3 5 1 15 8 23 8 7 12 19 9 26 -2 6 1 12 6 12 5 0 13 10 17 23
4 12 8 25 10 30 6 18 7 22 6 30 0 4 3 7 8 7 5 0 12 11 15 25 4 16 11 23 18 19
6 -4 8 -3 5 3 -7 12 20 74 37 85 7 5 6 8 -4 8 -11 0 -12 2 -3 8 7 4 20 27 31
50 10 23 23 39 28 34 4 -4 2 2 -6 12 -8 11 -10 17 -4 13 9 -5 37 43 48 83 1 3
8 16 16 30 8 14 15 27 15 30 3 9 25 54 34 70 13 20 25 53 23 63 -1 4 3 7 9 7
5 0 7 4 4 10 -3 6 -1 10 5 10 7 0 10 7 6 15 -3 9 0 15 9 15 9 0 12 6 9 15 -4
8 1 17 9 21 9 3 13 12 10 20 -3 8 3 21 13 29 11 8 16 15 12 15 -4 0 1 16 12
35 11 20 20 42 20 50 0 8 4 15 9 15 9 0 26 48 23 63 -1 4 2 7 7 7 9 0 35 58
32 73 0 4 4 7 9 7 6 0 10 4 10 10 0 5 20 50 44 99 24 49 42 92 38 95 -3 3 -1
6 5 6 10 0 26 36 24 53 -1 4 5 10 13 13 8 3 12 12 9 20 -3 8 -1 14 5 14 5 0
12 14 16 31 4 21 10 28 18 23 8 -5 8 -1 -2 12 -8 10 -10 16 -5 11 10 -8 67
102 59 115 -3 4 2 11 10 14 9 3 16 15 16 25 0 10 5 19 12 19 6 0 8 3 5 7 -4 3
0 17 8 30 9 13 13 23 10 23 -4 0 1 7 9 16 9 8 14 20 11 25 -4 5 -2 9 3 9 9 0
26 48 22 59 -1 2 5 8 14 13 9 5 14 13 11 17 -2 5 2 14 10 21 8 7 15 19 15 28
0 8 8 24 18 35 11 13 12 17 3 12 -8 -5 -5 6 8 23 12 18 23 41 24 52 1 11 5 20
9 20 4 0 8 6 8 14 0 8 5 16 10 18 6 2 12 13 13 26 0 12 4 22 8 22 4 0 10 11
13 25 4 16 11 23 18 19 7 -4 8 -3 4 4 -4 6 -1 22 6 34 7 13 11 26 10 31 -1 4
3 7 9 7 5 0 8 4 4 9 -3 5 2 16 10 24 8 9 15 23 15 32 0 9 9 28 20 42 11 14 17
29 14 34 -3 5 0 9 6 9 6 0 8 5 5 10 -3 6 -1 10 4 10 6 0 11 7 11 15 0 8 4 15
9 15 6 0 8 9 6 20 -2 11 0 20 4 20 4 0 13 16 21 35 8 19 18 35 24 35 5 0 6 3
3 7 -4 3 -2 12 4 20 6 7 8 13 3 13 -4 0 1 7 12 16 10 8 12 12 4 8 -10 -5 -9 0
4 14 11 12 15 22 10 22 -5 0 -2 6 6 13 9 7 15 19 15 27 0 8 2 17 6 20 4 3 9
12 11 20 2 8 9 21 16 28 7 8 10 18 7 23 -4 5 -3 9 2 9 4 0 14 15 22 33 8 17
34 73 57 122 23 50 43 94 42 99 0 5 5 12 12 16 6 4 12 13 13 21 2 8 6 20 10
27 5 6 5 12 1 12 -4 0 1 7 12 15 10 8 15 15 11 15 -5 0 1 13 12 29 20 28 20
28 1 46 -13 12 -20 14 -20 5 0 -8 -6 -10 -17 -5 -30 11 -63 13 -63 2 0 -5 -7
-4 -15 3 -12 10 -15 10 -15 -1 0 -11 -2 -11 -10 1 -7 11 -10 11 -10 2 0 -7 -5
-10 -11 -7 -16 11 -59 13 -59 4 0 -5 -11 -4 -25 1 -18 7 -25 6 -25 -3 0 -8 -4
-7 -10 3 -9 13 -10 13 -10 0 0 -9 -3 -11 -8 -5 -8 12 -92 14 -92 2 0 -4 -9 -3
-20 3 -14 8 -20 8 -20 0 0 -7 -7 -7 -21 1 -17 9 -23 8 -30 -2 -7 -11 -9 -11
-9 1 0 12 -2 13 -9 1 -5 -7 -14 -10 -20 -6 -19 11 -61 13 -61 2 0 -5 -7 -4
-15 3 -12 10 -15 10 -15 -1 0 -11 -2 -11 -10 1 -7 11 -10 11 -10 2 0 -7 -5
-10 -11 -7 -16 11 -59 13 -59 4 0 -5 -11 -4 -25 1 -18 7 -25 6 -25 -3 0 -8 -4
-7 -10 3 -9 13 -10 13 -10 0 0 -9 -3 -11 -8 -5 -8 12 -92 14 -92 2 0 -4 -9 -3
-20 3 -14 8 -20 8 -20 0 0 -7 -7 -7 -21 1 -17 9 -23 8 -30 -2 -7 -11 -9 -11
-9 1 0 12 -2 13 -9 1 -5 -7 -14 -10 -20 -6 -19 11 -61 13 -61 2 0 -5 -7 -4
-15 3 -12 10 -15 10 -15 -1 0 -11 -2 -11 -10 1 -7 11 -10 11 -10 2 0 -7 -5
-10 -11 -7 -16 11 -59 13 -59 4 0 -5 -11 -4 -25 1 -18 7 -25 6 -25 -3 0 -8 -4
-7 -10 3 -9 13 -10 13 -10 0 0 -9 -3 -11 -8 -5 -8 12 -92 14 -92 2 0 -4 -9 -3
-20 3 -14 8 -20 8 -20 0 0 -7 -7 -7 -21 1 -17 9 -23 8 -30 -2 -7 -11 -9 -11
-9 1 0 12 -2 13 -9 1 -5 -7 -14 -10 -20 -6 -19 11 -61 13 -61 2 0 -5 -7 -4
-15 3 -12 10 -15 10 -15 -1 0 -11 -2 -11 -10 1 -7 11 -10 11 -10 2 0 -7 -5
-10 -11 -7 -16 11 -59 13 -59 4 0 -5 -11 -4 -25 1 -18 7 -25 6 -25 -3 0 -8 -4
-7 -10 3 -9 13 -10 13 -10 0 0 -9 -3 -11 -8 -5 -8 12 -92 14 -92 2 0 -4 -9 -3
-20 3 -14 8 -20 8 -20 0 0 -7 -7 -7 -21 1 -17 9 -23 8 -30 -2 -7 -11 -9 -11
-9 1 0 12 -2 13 -9 1 -5 -7 -14 -10 -20 -6 -19 11 -61 13 -61 2 0 -5 -7 -4
-15 3 -12 10 -15 10 -15 -1 0 -11 -2 -11 -10 1 -7 11 -10 11 -10 2 0 -7 -5
-10 -11 -7 -16 11 -59 13 -59 4 0 -5 -11 -4 -25 1 -18 7 -25 6 -25 -3 0 -8 -4
-7 -10 3 -9 13 -10 13 -10 0 0 -9 -3 -11 -8 -5 -8 12 -92 14 -92 2 0 -4 -9 -3
-20 3 -14 8 -20 8 -20 0 0 -7 -7 -7 -21 1 -17 9 -23 8 -30 -2 -7 -11 -9 -11
-9 1 0 12 -2 13 -9 1 -5 -7 -14 -10 -20 -6 -19 11 -61 13 -61 2 0 -5 -7 -4
-15 3 -12 10 -15 10 -15 -1 0 -11 -2 -11 -10 1 -7 11 -10 11 -10 2 0 -7 -5
-10 -11 -7 -16 11 -59 13 -59 4 0 -5 -11 -4 -25 1 -18 7 -25 6 -25 -3 0 -8 -4
-7 -10 3 -9 13 -10 13 -10 0 0 -9 -3 -11 -8 -5 -8 12 -92 14 -92 2 0 -4 -9 -3
-20 3 -14 8 -20 8 -20 0 0 -7 -7 -7 -21 1 -17 9 -23 8 -30 -2 -7 -11 -9 -11
-9 1 0 12 -2 13 -9 1 -5 -7 -14 -10 -20 -6 -19 11 -61 13 -61 2 0 -5 -7 -4
-15 3 -12 10 -15 10 -15 -1 0 -11 -2 -11 -10 1 -7 11 -10 11 -10 2 0 -7 -5
-10 -11 -7 -16 11 -59 13 -59 4 0 -5 -11 -4 -25 1 -18 7 -25 6 -25 -3 0 -8 -4
-7 -10 3 -9 13 -10 13 -10 0 0 -9 -3 -11 -8 -5 -8 12 -92 14 -92 2 0 -4 -9 -3
-20 3 -14 8 -20 8 -20 0 0 -7 -7 -7 -21 1 -17 9 -23 8 -30 -2 -7 -11 -9 -11
-9 1 0 12 -2 13 -9 1 -5 -7 -14 -10 -20 -6 -19 11 -61 13 -61 2 0 -5 -7 -4
-15 3 -12 10 -15 10 -15 -1 0 -11 -2 -11 -10 1 -7 11 -10 11 -10 2 0 -7 -5
-10 -11 -7 -16 11 -59 13 -59 4 0 -5 -11 -4 -25 1 -18 7 -25 6 -25 -3 0 -8 -4
-7 -10 3 -9 13 -10 13 -10 0 0 -9 -3 -11 -8 -5 -8 12 -92 14 -92 2 0 -4 -9 -3
-20 3 -14 8 -20 8 -20 0 0 -7 -7 -7 -21 1 -17 9 -23 8 -30 -2 -7 -11 -9 -11
-9 1 0 12 -2 13 -9 1 -5 -7 -14 -10 -20 -6 -19 11 -61 13 -61 2 0 -5 -7 -4
-15 3 -12 10 -15 10 -15 -1 0 -11 -2 -11 -10 1 -7 11 -10 11 -10 2 0 -7 -5
-10 -11 -7 -16 11 -59 13 -59 4 0 -5 -11 -4 -25 1 -18 7 -25 6 -25 -3 0 -8 -4
-7 -10 3 -9 13 -10 13 -10 0 0 -9 -3 -11 -8 -5 -4 6 -52 10 -107 10 -55 0
-103 -4 -107 -10 -5 -6 -8 -4 -8 5 0 13 -1 13 -10 0 -9 -13 -10 -13 -10 0 0
13 -1 13 -10 0 -9 -13 -10 -13 -10 0 0 13 -1 13 -10 0 -5 -8 -10 -10 -10 -3 0
6 -9 9 -20 6 -11 -3 -27 0 -35 7 -13 11 -14 10 -10 -2 5 -12 0 -15 -17 -12
-56 9 -168 8 -168 -1 0 -5 -5 -3 -10 5 -9 13 -10 13 -10 0 0 -13 -1 -13 -10 0
-9 13 -10 13 -10 0 0 -12 -2 -13 -9 -1 -7 11 -9 11 -14 0 -3 -8 -6 -9 -6 -2
-1 6 -10 9 -21 6 -11 -3 -27 0 -35 7 -13 11 -14 10 -10 -2 5 -12 0 -15 -17
-12 -56 9 -168 8 -168 -1 0 -5 -5 -3 -10 5 -9 13 -10 13 -10 0 0 -13 -1 -13
-10 0 -9 13 -10 13 -10 0 0 -12 -2 -13 -9 -1 -7 11 -9 11 -14 0 -3 -8 -6 -9
-6 -2 -1 6 -10 9 -21 6 -11 -3 -27 0 -35 7 -13 11 -14 10 -10 -1z m1361 -960
c4 -8 9 -8 17 0 7 7 15 7 26 -2 12 -9 13 -9 7 1 -4 7 -1 12 8 12 9 0 16 -6 16
-12 0 -9 3 -9 8 -2 9 13 124 13 134 -1 5 -6 8 -6 8 1 0 14 82 13 92 -1 5 -6 8
-6 8 2 0 13 18 12 39 -1 10 -6 12 -5 7 2 -4 7 -1 12 8 12 9 0 16 -6 16 -12 0
-9 3 -9 8 -2 9 13 124 13 134 -1 5 -6 8 -6 8 1 0 14 82 13 92 -1 5 -6 8 -6 8
2 0 13 18 12 39 -1 10 -6 12 -5 7 2 -4 7 -1 12 8 12 9 0 16 -6 16 -12 0 -9 3
-9 8 -3 9 14 162 14 162 0 0 -5 5 -3 10 5 9 13 11 13 20 0 5 -8 10 -10 10 -5
0 14 83 13 92 0 5 -6 8 -6 8 1 0 14 82 13 92 -1 5 -6 8 -6 8 2 0 13 18 12 39
-1 10 -6 12 -5 7 2 -4 7 -1 12 8 12 9 0 16 -6 16 -12 0 -9 3 -9 8 -3 9 14 162
14 162 0 0 -5 5 -3 10 5 9 13 11 13 20 0 5 -8 10 -10 10 -5 0 14 110 14 110 1
0 -6 4 -5 9 3 7 12 13 12 24 3 7 -7 17 -9 21 -5 12 12 36 12 36 0 0 -8 3 -8 8
-2 10 15 62 16 62 2 0 -7 4 -6 10 3 9 13 11 13 20 0 5 -8 10 -10 10 -5 0 14
130 14 130 1 0 -6 5 -4 10 4 9 13 11 13 20 0 5 -8 10 -10 10 -5 0 14 83 13 92
0 5 -7 8 -6 8 1 0 6 20 10 45 10 25 0 45 -4 45 -10 0 -7 3 -8 8 -1 10 14 74
16 65 2 -4 -6 -1 -7 8 -1 22 13 90 14 82 0 -3 -6 0 -6 8 2 7 6 16 12 19 12 12
0 7 -35 -7 -48 -7 -7 -13 -22 -13 -33 0 -10 -4 -19 -9 -19 -8 0 -23 -41 -20
-57 0 -3 -7 -11 -16 -16 -14 -8 -15 -11 -4 -18 11 -7 10 -9 -5 -9 -12 0 -16
-5 -13 -14 3 -8 1 -16 -4 -18 -5 -2 -11 -13 -12 -25 0 -12 -4 -20 -8 -18 -6 4
-38 -63 -44 -93 -2 -7 -9 -20 -16 -29 -7 -8 -14 -22 -16 -31 -1 -9 -6 -18 -12
-20 -5 -2 -7 -10 -4 -18 3 -8 0 -14 -7 -14 -6 0 -9 -4 -5 -9 3 -6 -2 -14 -11
-19 -9 -5 -15 -12 -14 -16 3 -16 -25 -74 -33 -69 -6 3 -7 2 -4 -4 7 -11 -47
-126 -55 -117 -3 2 -4 -7 -3 -21 2 -14 0 -23 -5 -20 -4 3 -11 -7 -14 -20 -4
-14 -11 -23 -15 -20 -5 3 -7 -5 -3 -17 3 -14 1 -19 -6 -14 -8 5 -10 2 -6 -8 3
-9 1 -16 -5 -16 -6 0 -10 -3 -9 -7 4 -12 -54 -133 -63 -133 -5 0 -6 -7 -3 -15
4 -8 -1 -17 -10 -21 -9 -3 -14 -10 -11 -14 3 -5 -4 -25 -16 -44 -11 -20 -18
-36 -13 -36 4 0 0 -8 -8 -17 -17 -20 -32 -54 -30 -65 1 -5 -3 -8 -9 -8 -5 0
-7 -4 -4 -10 3 -5 1 -10 -4 -10 -6 0 -11 -3 -10 -7 2 -17 -14 -53 -24 -53 -6
0 -8 -3 -4 -6 3 -3 -10 -36 -29 -72 -19 -37 -34 -73 -34 -79 0 -7 -5 -13 -11
-13 -6 0 -9 -6 -7 -12 3 -7 -1 -19 -9 -26 -7 -8 -11 -18 -8 -23 4 -5 2 -9 -3
-9 -10 0 -38 -60 -34 -72 1 -5 -3 -8 -9 -8 -5 0 -7 -4 -4 -10 3 -5 1 -10 -4
-10 -6 0 -10 -3 -9 -7 1 -5 -10 -32 -25 -62 -15 -30 -27 -60 -27 -67 0 -7 -5
-16 -12 -20 -7 -5 -8 -3 -3 6 5 8 4 11 -3 6 -6 -4 -9 -13 -6 -20 3 -8 1 -17
-5 -21 -6 -3 -11 -15 -11 -26 0 -10 -4 -19 -10 -19 -5 0 -10 -9 -10 -21 0 -11
-4 -18 -9 -14 -6 3 -8 -3 -6 -14 2 -11 -3 -22 -12 -25 -9 -4 -13 -9 -10 -12 3
-3 -9 -33 -25 -67 -17 -34 -31 -67 -31 -74 0 -7 -4 -10 -8 -8 -3 3 -9 -4 -12
-15 -3 -11 -6 -23 -7 -25 0 -3 -14 -30 -30 -61 -17 -31 -30 -62 -30 -70 0 -8
-4 -14 -8 -14 -6 0 -28 -42 -36 -70 -1 -3 -8 -16 -16 -30 -7 -14 -11 -27 -9
-29 2 -2 -4 -5 -13 -7 -10 -1 -17 1 -16 4 4 13 -26 81 -32 77 -4 -2 -7 2 -7 9
0 16 -45 109 -58 118 -5 4 -6 8 -1 8 5 0 3 7 -4 15 -7 8 -9 15 -5 15 3 0 -3
12 -14 26 -11 15 -18 30 -15 35 3 5 0 9 -6 9 -7 0 -10 6 -7 14 3 8 -1 17 -10
20 -8 4 -13 13 -9 21 3 8 2 15 -3 15 -8 0 -36 56 -36 73 0 4 -5 11 -11 15 -6
4 -10 15 -9 24 2 10 -1 16 -7 15 -6 -1 -12 7 -14 18 -1 11 -7 21 -13 23 -5 2
-8 9 -5 16 3 7 -2 19 -10 26 -9 7 -13 16 -10 21 3 5 0 9 -5 9 -6 0 -11 6 -11
13 0 6 -16 42 -34 79 -19 37 -32 69 -28 72 3 3 1 6 -5 6 -9 0 -22 26 -27 53 0
4 -8 12 -16 17 -8 5 -11 10 -7 10 5 0 5 6 0 13 -4 6 -8 18 -9 24 -1 7 -9 20
-18 29 -19 19 -21 28 -3 18 6 -4 5 1 -4 12 -9 10 -20 29 -23 42 -4 12 -12 22
-17 22 -6 0 -7 5 -4 10 3 6 1 10 -5 10 -6 0 -9 4 -5 9 3 5 -1 15 -8 23 -8 7
-12 19 -9 26 2 6 0 12 -5 12 -4 0 -19 27 -33 60 -14 33 -29 60 -33 60 -5 0 -6
4 -2 9 3 5 -2 17 -11 25 -8 9 -12 16 -8 16 3 0 1 6 -5 13 -6 8 -8 17 -4 20 3
4 2 7 -4 7 -10 0 -26 35 -24 52 0 3 -6 12 -14 18 -8 7 -15 21 -15 31 0 11 -4
19 -10 19 -5 0 -10 9 -10 20 0 11 -5 20 -11 20 -5 0 -7 5 -4 10 3 6 1 10 -4
10 -6 0 -10 3 -9 8 1 4 -3 17 -10 30 -7 12 -9 22 -5 22 4 0 3 4 -2 8 -15 10
-76 134 -63 126 6 -4 3 5 -8 19 -10 15 -22 27 -26 27 -4 0 -5 7 -2 15 4 8 1
15 -6 15 -6 0 -9 4 -5 9 3 5 -1 15 -8 23 -7 7 -14 17 -15 21 -2 18 -27 67 -34
67 -4 0 -5 7 -2 15 4 8 1 15 -6 15 -6 0 -8 5 -5 10 3 6 2 10 -3 10 -9 0 -25
37 -23 53 1 4 -5 10 -13 13 -8 3 -13 11 -10 19 3 7 -1 19 -9 26 -7 8 -17 26
-20 41 -4 15 -13 33 -20 40 -6 7 -13 20 -15 28 -2 8 -8 17 -13 18 -5 2 -7 8
-3 13 3 5 1 9 -5 9 -5 0 -8 8 -7 18 2 9 -2 20 -8 24 -6 4 -12 12 -12 18 -1 5
-2 15 -3 21 0 5 -7 7 -13 3 -7 -4 -10 -4 -6 1 4 4 -2 25 -12 46 -11 21 -20 45
-20 54 0 17 25 20 36 4z"/>
</g>
</svg>
